<svg
    xmlns="http://www.w3.org/2000/svg"
    viewBox="0 0 24 24"
    id="vector">
    <path
        id="path"
        d="M 7 18 C 5.9 18 5.01 18.9 5.01 20 C 5.01 21.1 5.9 22 7 22 C 8.1 22 9 21.1 9 20 C 9 18.9 8.1 18 7 18 Z M 1 3 C 1 3.55 1.45 4 2 4 L 3 4 L 6.6 11.59 L 5.25 14.03 C 4.52 15.37 5.48 17 7 17 L 18 17 C 18.55 17 19 16.55 19 16 C 19 15.45 18.55 15 18 15 L 7 15 L 8.1 13 L 15.55 13 C 16.3 13 16.96 12.59 17.3 11.97 L 20.88 5.48 C 21.25 4.82 20.77 4 20.01 4 L 5.21 4 L 4.54 2.57 C 4.38 2.22 4.02 2 3.64 2 L 2 2 C 1.45 2 1 2.45 1 3 Z M 17 18 C 15.9 18 15.01 18.9 15.01 20 C 15.01 21.1 15.9 22 17 22 C 18.1 22 19 21.1 19 20 C 19 18.9 18.1 18 17 18 Z"
        fill="#3b4453"/>
</svg>
