<svg
    xmlns="http://www.w3.org/2000/svg"
    viewBox="0 0 24 24"
    id="vector">
    <path
        id="path_1"
        d="M 15 16 L 18 16 C 18.55 16 19 15.55 19 15 L 19 9 C 19 8.45 18.55 8 18 8 L 15 8 C 14.45 8 14 8.45 14 9 L 14 15 C 14 15.55 14.45 16 15 16 Z M 16 10 L 17 10 L 17 14 L 16 14 L 16 10 Z M 9 16 L 12 16 C 12.55 16 13 15.55 13 15 L 13 9 C 13 8.45 12.55 8 12 8 L 9 8 C 8.45 8 8 8.45 8 9 L 8 15 C 8 15.55 8.45 16 9 16 Z M 10 10 L 11 10 L 11 14 L 10 14 L 10 10 Z M 6 8 C 5.45 8 5 8.45 5 9 L 5 15 C 5 15.55 5.45 16 6 16 C 6.55 16 7 15.55 7 15 L 7 9 C 7 8.45 6.55 8 6 8 Z M 2 6 L 2 18 C 2 19.1 2.9 20 4 20 L 20 20 C 21.1 20 22 19.1 22 18 L 22 6 C 22 4.9 21.1 4 20 4 L 4 4 C 2.9 4 2 4.9 2 6 Z M 19 18 L 5 18 C 4.45 18 4 17.55 4 17 L 4 7 C 4 6.45 4.45 6 5 6 L 19 6 C 19.55 6 20 6.45 20 7 L 20 17 C 20 17.55 19.55 18 19 18 Z"
        fill="#3b4453"/>
</svg>
