<svg
    xmlns="http://www.w3.org/2000/svg"
    viewBox="0 0 24 24"
    id="vector">
    <path
        id="path_2"
        d="M 12 20 L 11.14 19.14 C 9.96 17.96 9.97 16.04 11.16 14.88 L 12 14.06 C 11.61 14.02 11.32 14 11 14 C 8.33 14 3 15.34 3 18 L 3 20 L 12 20 Z M 11 12 C 13.21 12 15 10.21 15 8 C 15 5.79 13.21 4 11 4 C 8.79 4 7 5.79 7 8 C 7 10.21 8.79 12 11 12"
        fill="#000000"/>
    <path
        id="path_3"
        d="M 16.18 19.78 C 15.79 20.17 15.15 20.17 14.76 19.78 L 12.69 17.69 C 12.31 17.3 12.31 16.68 12.69 16.3 L 12.7 16.29 C 13.09 15.9 13.72 15.9 14.1 16.29 L 15.47 17.66 L 19.9 13.2 C 20.29 12.81 20.92 12.81 21.31 13.2 L 21.32 13.21 C 21.7 13.6 21.7 14.22 21.32 14.6 L 16.18 19.78 Z"
        fill="#000000"/>
</svg>
