<svg
    xmlns="http://www.w3.org/2000/svg"
    viewBox="0 0 640 640"
    id="vector">
    <path
        id="path_6"
        d="M 610.5 405.3 C 613.1 391.2 613.1 376.8 610.5 362.7 L 636.3 347.8 C 639.3 346.1 640.6 342.6 639.6 339.3 C 632.9 317.7 621.4 298.1 606.4 281.9 C 604.1 279.4 600.4 278.8 597.4 280.5 L 571.6 295.4 C 560.7 286.1 548.2 278.9 534.7 274.1 L 534.7 244.3 C 534.7 240.9 532.3 237.9 529 237.2 C 506.7 232.2 484 232.4 462.8 237.2 C 459.5 237.9 457.1 240.9 457.1 244.3 L 457.1 274.1 C 443.6 278.9 431.1 286.1 420.2 295.4 L 394.4 280.5 C 391.5 278.8 387.7 279.4 385.4 281.9 C 370.4 298.1 358.9 317.7 352.2 339.3 C 351.2 342.6 352.6 346.1 355.5 347.8 L 381.3 362.7 C 378.7 376.8 378.7 391.2 381.3 405.3 L 355.5 420.2 C 352.5 421.9 351.2 425.4 352.2 428.7 C 358.9 450.3 370.4 469.8 385.4 486.1 C 387.7 488.6 391.4 489.2 394.4 487.5 L 420.2 472.6 C 431.1 481.9 443.6 489.1 457.1 493.9 L 457.1 523.7 C 457.1 527.1 459.5 530.1 462.8 530.8 C 485.1 535.8 507.8 535.6 529 530.8 C 532.3 530.1 534.7 527.1 534.7 523.7 L 534.7 493.9 C 548.2 489.1 560.7 481.9 571.6 472.6 L 597.4 487.5 C 600.3 489.2 604.1 488.6 606.4 486.1 C 621.4 469.9 632.9 450.3 639.6 428.7 C 640.6 425.4 639.2 421.9 636.3 420.2 L 610.5 405.3 Z M 496 432.5 C 469.2 432.5 447.5 410.7 447.5 384 C 447.5 357.3 469.3 335.5 496 335.5 C 522.7 335.5 544.5 357.3 544.5 384 C 544.5 410.7 522.8 432.5 496 432.5 Z M 96 288 C 131.3 288 160 259.3 160 224 C 160 188.7 131.3 160 96 160 C 60.7 160 32 188.7 32 224 C 32 259.3 60.7 288 96 288 Z M 320 320 C 321.9 320 323.7 319.5 325.6 319.4 C 333.9 297.7 346.1 277.3 361.9 260.2 C 369.3 252.2 379.8 247.6 390.8 247.6 C 397.7 247.6 404.5 249.4 410.4 252.9 L 418.3 257.5 C 419.1 257 419.9 256.6 420.7 256.1 C 427.7 241.5 431.9 225.3 431.9 208.1 C 431.9 146.2 381.8 96.1 319.9 96.1 C 258 96.1 208 146.1 208 208 C 208 269.9 258.1 320 320 320 Z M 425.2 514.5 C 422.9 513.3 420.6 511.9 418.4 510.6 C 410.2 515.4 403.1 520.4 390.9 520.4 C 380 520.4 369.5 515.8 362 507.8 C 343.7 488 329.7 463.9 321.8 438.2 C 311.1 403.7 346.7 388.5 347.6 387.9 C 347.5 385.3 347.5 382.7 347.6 380.1 L 339.7 375.5 C 335.9 373.3 332.7 370.5 329.9 367.4 C 326.6 367.6 323.4 368 320.1 368 C 295.5 368 272.5 362 251.6 352 L 243.3 352 C 179.6 352 128 403.6 128 467.2 L 128 496 C 128 522.5 149.5 544 176 544 L 431.4 544 C 427.7 538 425.2 531.2 425.2 523.7 L 425.2 514.5 Z M 173.1 338.6 C 161.5 327.1 145.6 320 128 320 L 64 320 C 28.7 320 0 348.7 0 384 L 0 416 C 0 433.7 14.3 448 32 448 L 97.9 448 C 104.2 400.6 132.8 360.7 173.1 338.6 Z"
        fill="#000000"/>
</svg>
