<svg
    xmlns="http://www.w3.org/2000/svg"
    viewBox="0 0 91 91"
    id="vector">
    <path
        id="path"
        d="M 11 46 C 11 47.046 11.375 47.937 12.124 48.673 C 12.874 49.408 13.758 49.776 14.776 49.776 L 42.224 49.776 L 42.224 77.224 C 42.224 78.242 42.592 79.126 43.327 79.876 C 44.063 80.625 44.953 81 46 81 C 47.046 81 47.944 80.625 48.694 79.876 C 49.443 79.126 49.818 78.242 49.818 77.224 L 49.818 49.776 L 77.224 49.776 C 78.242 49.776 79.126 49.408 79.876 48.673 C 80.625 47.937 81 47.046 81 46 C 81 44.954 80.625 44.056 79.876 43.306 C 79.126 42.557 78.242 42.182 77.224 42.182 L 49.818 42.182 L 49.818 14.776 C 49.818 13.758 49.443 12.874 48.694 12.124 C 47.944 11.375 47.046 11 46 11 C 44.953 11 44.063 11.375 43.327 12.124 C 42.592 12.874 42.224 13.758 42.224 14.776 L 42.224 42.182 L 14.776 42.182 C 13.758 42.182 12.874 42.557 12.124 43.306 C 11.375 44.056 11 44.954 11 46 Z"
        fill="#000000"/>
</svg>
