<svg
    xmlns="http://www.w3.org/2000/svg"
    viewBox="0 0 91 90"
    id="vector">
    <path
        id="path"
        d="M 26.225 84.784 L 63.625 84.784 C 66.534 84.784 68.9 84.028 70.722 82.515 C 72.543 81.002 73.522 78.97 73.658 76.417 L 76.472 24.864 L 81.366 24.864 C 82.209 24.864 82.923 24.599 83.507 24.067 C 84.092 23.535 84.385 22.903 84.385 22.17 C 84.385 21.437 84.085 20.811 83.487 20.291 C 82.889 19.771 82.182 19.511 81.366 19.511 L 8.484 19.511 C 7.668 19.511 6.955 19.777 6.343 20.308 C 5.731 20.84 5.425 21.461 5.425 22.17 C 5.425 22.903 5.731 23.535 6.343 24.067 C 6.955 24.599 7.668 24.864 8.484 24.864 L 13.378 24.864 L 16.192 76.452 C 16.328 79.005 17.3 81.032 19.108 82.533 C 20.917 84.034 23.289 84.784 26.225 84.784 Z M 26.796 79.43 C 25.627 79.43 24.648 79.088 23.86 78.402 C 23.071 77.717 22.65 76.854 22.596 75.814 L 19.741 24.864 L 69.906 24.864 L 67.214 75.814 C 67.16 76.878 66.738 77.746 65.95 78.42 C 65.161 79.094 64.169 79.43 62.972 79.43 L 26.796 79.43 Z M 27 22.028 L 33.485 22.028 L 33.485 14.441 C 33.485 13.448 33.859 12.644 34.607 12.03 C 35.354 11.415 36.34 11.108 37.564 11.108 L 52.164 11.108 C 53.388 11.108 54.374 11.415 55.121 12.03 C 55.869 12.644 56.243 13.448 56.243 14.441 L 56.243 22.028 L 62.728 22.028 L 62.728 14.086 C 62.728 11.533 61.824 9.518 60.016 8.041 C 58.208 6.564 55.74 5.825 52.613 5.825 L 37.115 5.825 C 33.988 5.825 31.521 6.564 29.712 8.041 C 27.904 9.518 27 11.533 27 14.086 L 27 22.028 Z M 44.905 73.368 C 45.693 73.368 46.332 73.173 46.822 72.783 C 47.311 72.393 47.556 71.89 47.556 71.276 L 47.556 33.374 C 47.556 32.759 47.311 32.257 46.822 31.867 C 46.332 31.477 45.693 31.282 44.905 31.282 C 44.144 31.282 43.518 31.477 43.029 31.867 C 42.539 32.257 42.295 32.759 42.295 33.374 L 42.295 71.276 C 42.295 71.89 42.539 72.393 43.029 72.783 C 43.518 73.173 44.144 73.368 44.905 73.368 Z M 32.833 73.368 C 33.594 73.368 34.206 73.173 34.668 72.783 C 35.13 72.393 35.361 71.89 35.361 71.276 L 34.097 33.338 C 34.097 32.724 33.859 32.227 33.383 31.849 C 32.907 31.471 32.302 31.282 31.568 31.282 C 30.807 31.282 30.188 31.477 29.712 31.867 C 29.237 32.257 29.012 32.759 29.04 33.374 L 30.263 71.276 C 30.29 71.914 30.535 72.422 30.997 72.8 C 31.459 73.178 32.071 73.368 32.833 73.368 Z M 57.018 73.368 C 57.752 73.368 58.35 73.178 58.812 72.8 C 59.275 72.422 59.519 71.914 59.547 71.276 L 60.77 33.374 C 60.797 32.759 60.58 32.257 60.117 31.867 C 59.655 31.477 59.03 31.282 58.241 31.282 C 57.507 31.282 56.909 31.471 56.447 31.849 C 55.985 32.227 55.74 32.736 55.713 33.374 L 54.489 71.276 C 54.462 71.89 54.68 72.393 55.142 72.783 C 55.604 73.173 56.229 73.368 57.018 73.368 Z"
        fill="#000000"/>
</svg>
